<svg  viewBox="0 0 1006 1008" fill="none" xmlns="http://www.w3.org/2000/svg" xmlns:xlink="http://www.w3.org/1999/xlink">
  <rect x="5" width="1000" height="1008" fill="url(#pattern0)"/>
  <rect x="561" y="738.155" width="54" height="270" rx="27" transform="rotate(-21.9157 561 738.155)" fill="black"/>
  <rect x="396.758" y="718" width="54" height="270" rx="27" transform="rotate(18.2955 396.758 718)" fill="black"/>
  <rect x="478" width="54" height="270" rx="27" fill="black"/>
  <rect x="807.557" y="104" width="54" height="270" rx="27" transform="rotate(40.5576 807.557 104)" fill="black"/>
  <rect x="154" y="141.036" width="54" height="270" rx="27" transform="rotate(-43.302 154 141.036)" fill="black"/>
  <rect y="444.241" width="54" height="270" rx="27" transform="rotate(-80.3811 0 444.241)" fill="black"/>
  <rect x="995.795" y="394" width="54" height="270" rx="27" transform="rotate(79.8744 995.795 394)" fill="black"/>
  <rect x="961.197" y="738.011" width="54" height="270" rx="27" transform="rotate(119.758 961.197 738.011)" fill="black"/>
  <rect x="278.732" y="602" width="54" height="270" rx="27" transform="rotate(59.5387 278.732 602)" fill="black"/>
  <rect x="648.869" y="26.804" width="54.4606" height="169.005" rx="27.2303" transform="rotate(18.493 648.869 26.804)" fill="black"/>
  <rect x="317" y="47.3606" width="54.4606" height="169.005" rx="27.2303" transform="rotate(-21.9537 317 47.3606)" fill="black"/>
  <rect x="68" y="275.522" width="54.4606" height="169.005" rx="27.2303" transform="rotate(-58.6742 68 275.522)" fill="black"/>
  <rect x="10.0298" y="614.654" width="54.4606" height="169.005" rx="27.2303" transform="rotate(-100.613 10.0298 614.654)" fill="black"/>
  <rect x="925.436" y="228" width="54.4606" height="169.005" rx="27.2303" transform="rotate(57.436 925.436 228)" fill="black"/>
  <rect x="1005.85" y="565.254" width="54.4606" height="169.005" rx="27.2303" transform="rotate(98.7383 1005.85 565.254)" fill="black"/>
  <rect x="840.218" y="873.458" width="54.4606" height="169.005" rx="27.2303" transform="rotate(139.472 840.218 873.458)" fill="black"/>
  <rect x="532.263" y="996.587" width="54.4606" height="169.005" rx="27.2303" transform="rotate(179.695 532.263 996.587)" fill="black"/>
  <rect x="203.13" y="909.095" width="54.4606" height="169.005" rx="27.2303" transform="rotate(-142.367 203.13 909.095)" fill="black"/>
</svg>
